<svg xmlns="http://www.w3.org/2000/svg" xmlns:xlink="http://www.w3.org/1999/xlink" width="1366" zoomAndPan="magnify" viewBox="0 0 1024.5 576" height="768" preserveAspectRatio="xMidYMid meet" version="1.0"><defs><clipPath id="7a4efec9af"><path d="M 313 0.140625 L 486 0.140625 L 486 275 L 313 275 Z M 313 0.140625 " clip-rule="nonzero"/></clipPath><clipPath id="dc64d5513d"><path d="M 582 226 L 766.5 226 L 766.5 510 L 582 510 Z M 582 226 " clip-rule="nonzero"/></clipPath><clipPath id="5e12eee1ba"><path d="M 369 361 L 380 361 L 380 575.859375 L 369 575.859375 Z M 369 361 " clip-rule="nonzero"/></clipPath></defs><g clip-path="url(#7a4efec9af)"><path fill="#321211" d="M 313.496094 274.402344 C 314.082031 253.9375 314.472656 233.277344 315.054688 212.8125 C 316.03125 177.34375 316.808594 141.871094 317.785156 106.402344 C 318.171875 91.003906 317.199219 75.21875 320.121094 60.019531 C 328.5 15.582031 370 0.574219 405.851562 0.769531 C 423.191406 0.769531 441.703125 3.109375 456.507812 13.828125 C 474.046875 26.300781 479.5 48.910156 480.667969 71.125 C 481.449219 87.886719 481.644531 104.84375 482.035156 121.605469 C 482.8125 151.421875 483.789062 181.046875 484.566406 210.863281 C 484.566406 211.058594 484.566406 211.449219 484.566406 211.644531 C 484.566406 211.644531 485.734375 252.574219 485.734375 252.574219 C 485.734375 252.574219 313.496094 274.402344 313.496094 274.402344 Z M 313.496094 274.402344 " fill-opacity="1" fill-rule="nonzero"/></g><path fill="#f8ab94" d="M 431.179688 176.757812 C 431.960938 178.316406 431.375 228.601562 431.375 228.601562 L 373.703125 228.796875 L 373.507812 160.191406 Z M 431.179688 176.757812 " fill-opacity="1" fill-rule="nonzero"/><path fill="#321211" d="M 433.910156 211.449219 L 385.589844 175.199219 L 433.714844 177.148438 Z M 433.910156 211.449219 " fill-opacity="1" fill-rule="nonzero"/><path fill="#f8ab94" d="M 447.351562 34.875 C 459.628906 38.191406 467.808594 48.128906 471.902344 59.824219 C 474.238281 66.644531 473.851562 73.269531 473.65625 80.480469 C 473.460938 86.328125 473.265625 92.175781 473.070312 98.023438 C 472.679688 109.519531 472.292969 120.824219 471.707031 132.324219 C 471.707031 134.46875 471.511719 136.609375 471.511719 138.753906 C 471.316406 143.238281 469.953125 147.914062 468.394531 152.203125 C 458.261719 179.488281 424.554688 190.597656 398.253906 182.800781 C 379.9375 177.34375 364.546875 162.53125 358.894531 144.015625 C 358.503906 142.652344 357.921875 141.09375 357.921875 139.535156 C 357.921875 139.144531 357.53125 138.949219 357.335938 139.144531 C 342.140625 148.695312 326.746094 135.246094 324.214844 119.851562 C 323.433594 114.78125 323.628906 110.105469 325.1875 106.207031 C 327.332031 100.554688 331.8125 96.269531 339.214844 94.125 C 344.085938 92.761719 349.347656 92.566406 354.023438 94.320312 C 356.363281 95.292969 358.894531 96.460938 360.453125 98.410156 C 362.402344 100.945312 364.15625 104.0625 364.546875 105.039062 C 364.546875 105.234375 364.738281 105.234375 364.933594 105.234375 L 365.324219 105.234375 C 364.546875 105.234375 443.261719 70.542969 447.351562 34.875 " fill-opacity="1" fill-rule="nonzero"/><path fill="#321211" d="M 415.984375 115.171875 C 415.984375 115.519531 415.949219 115.859375 415.882812 116.199219 C 415.816406 116.539062 415.714844 116.867188 415.582031 117.1875 C 415.449219 117.503906 415.289062 117.808594 415.097656 118.097656 C 414.90625 118.382812 414.6875 118.648438 414.441406 118.894531 C 414.199219 119.136719 413.933594 119.355469 413.644531 119.546875 C 413.359375 119.738281 413.054688 119.902344 412.734375 120.035156 C 412.417969 120.167969 412.085938 120.265625 411.75 120.332031 C 411.410156 120.402344 411.066406 120.433594 410.722656 120.433594 C 410.378906 120.433594 410.035156 120.402344 409.695312 120.332031 C 409.355469 120.265625 409.027344 120.167969 408.710938 120.035156 C 408.390625 119.902344 408.085938 119.738281 407.800781 119.546875 C 407.511719 119.355469 407.246094 119.136719 407.003906 118.894531 C 406.757812 118.648438 406.539062 118.382812 406.347656 118.097656 C 406.15625 117.808594 405.996094 117.503906 405.863281 117.1875 C 405.730469 116.867188 405.628906 116.539062 405.5625 116.199219 C 405.496094 115.859375 405.460938 115.519531 405.460938 115.171875 C 405.460938 114.828125 405.496094 114.484375 405.5625 114.144531 C 405.628906 113.808594 405.730469 113.476562 405.863281 113.160156 C 405.996094 112.839844 406.15625 112.535156 406.347656 112.25 C 406.539062 111.960938 406.757812 111.695312 407.003906 111.453125 C 407.246094 111.207031 407.511719 110.988281 407.800781 110.796875 C 408.085938 110.605469 408.390625 110.441406 408.710938 110.3125 C 409.027344 110.179688 409.355469 110.078125 409.695312 110.011719 C 410.035156 109.945312 410.378906 109.910156 410.722656 109.910156 C 411.066406 109.910156 411.410156 109.945312 411.75 110.011719 C 412.085938 110.078125 412.417969 110.179688 412.734375 110.3125 C 413.054688 110.441406 413.359375 110.605469 413.644531 110.796875 C 413.933594 110.988281 414.199219 111.207031 414.441406 111.453125 C 414.6875 111.695312 414.90625 111.960938 415.097656 112.25 C 415.289062 112.535156 415.449219 112.839844 415.582031 113.160156 C 415.714844 113.476562 415.816406 113.808594 415.882812 114.144531 C 415.949219 114.484375 415.984375 114.828125 415.984375 115.171875 Z M 415.984375 115.171875 " fill-opacity="1" fill-rule="nonzero"/><path fill="#321211" d="M 462.355469 115.171875 C 462.355469 115.519531 462.320312 115.859375 462.253906 116.199219 C 462.1875 116.539062 462.085938 116.867188 461.953125 117.1875 C 461.820312 117.503906 461.660156 117.808594 461.46875 118.097656 C 461.277344 118.382812 461.058594 118.648438 460.8125 118.894531 C 460.570312 119.136719 460.304688 119.355469 460.015625 119.546875 C 459.730469 119.738281 459.425781 119.902344 459.109375 120.035156 C 458.789062 120.167969 458.460938 120.265625 458.121094 120.332031 C 457.78125 120.402344 457.441406 120.433594 457.09375 120.433594 C 456.75 120.433594 456.40625 120.402344 456.066406 120.332031 C 455.730469 120.265625 455.398438 120.167969 455.082031 120.035156 C 454.761719 119.902344 454.457031 119.738281 454.171875 119.546875 C 453.882812 119.355469 453.617188 119.136719 453.375 118.894531 C 453.128906 118.648438 452.910156 118.382812 452.71875 118.097656 C 452.527344 117.808594 452.367188 117.503906 452.234375 117.1875 C 452.101562 116.867188 452.003906 116.539062 451.933594 116.199219 C 451.867188 115.859375 451.832031 115.519531 451.832031 115.171875 C 451.832031 114.828125 451.867188 114.484375 451.933594 114.144531 C 452.003906 113.808594 452.101562 113.476562 452.234375 113.160156 C 452.367188 112.839844 452.527344 112.535156 452.71875 112.25 C 452.910156 111.960938 453.128906 111.695312 453.375 111.453125 C 453.617188 111.207031 453.882812 110.988281 454.171875 110.796875 C 454.457031 110.605469 454.761719 110.441406 455.082031 110.3125 C 455.398438 110.179688 455.730469 110.078125 456.066406 110.011719 C 456.40625 109.945312 456.75 109.910156 457.09375 109.910156 C 457.441406 109.910156 457.78125 109.945312 458.121094 110.011719 C 458.460938 110.078125 458.789062 110.179688 459.109375 110.3125 C 459.425781 110.441406 459.730469 110.605469 460.015625 110.796875 C 460.304688 110.988281 460.570312 111.207031 460.8125 111.453125 C 461.058594 111.695312 461.277344 111.960938 461.46875 112.25 C 461.660156 112.535156 461.820312 112.839844 461.953125 113.160156 C 462.085938 113.476562 462.1875 113.808594 462.253906 114.144531 C 462.320312 114.484375 462.355469 114.828125 462.355469 115.171875 Z M 462.355469 115.171875 " fill-opacity="1" fill-rule="nonzero"/><path fill="#321211" d="M 443.457031 135.246094 C 444.234375 135.246094 445.015625 135.050781 445.792969 135.050781 C 445.988281 135.050781 446.574219 135.050781 446.960938 135.050781 C 446.960938 134.855469 446.769531 134.660156 446.769531 134.46875 C 446.574219 133.882812 446.574219 133.492188 446.378906 132.90625 C 446.183594 131.933594 445.792969 130.765625 445.597656 129.789062 C 445.015625 127.644531 444.625 125.695312 444.039062 123.554688 C 443.648438 121.992188 446.183594 121.214844 446.574219 122.773438 C 447.351562 126.085938 448.132812 129.59375 449.105469 132.90625 C 449.496094 134.273438 450.46875 136.609375 448.519531 137.390625 C 447.742188 137.585938 446.960938 137.585938 445.988281 137.78125 L 443.457031 137.976562 C 442.675781 137.976562 442.089844 137.390625 442.089844 136.609375 C 442.089844 135.636719 442.675781 135.246094 443.457031 135.246094 Z M 443.457031 135.246094 " fill-opacity="1" fill-rule="nonzero"/><path fill="#321211" d="M 473.070312 97.632812 C 473.070312 97.632812 473.070312 97.828125 473.070312 97.632812 C 473.65625 98.023438 474.046875 98.410156 474.046875 98.996094 C 474.046875 99.582031 473.65625 100.164062 473.265625 100.359375 C 471.707031 101.335938 468.980469 101.53125 467.226562 101.726562 C 464.886719 101.917969 462.550781 102.113281 460.210938 101.917969 C 456.898438 101.917969 453.390625 101.53125 450.273438 100.359375 C 449.886719 100.164062 449.300781 99.972656 448.910156 99.582031 C 447.9375 98.605469 448.328125 97.4375 449.496094 96.851562 C 452.613281 95.097656 457.679688 95.097656 461.1875 95.097656 C 464.691406 95.292969 469.5625 95.683594 473.070312 97.632812 Z M 473.070312 97.632812 " fill-opacity="1" fill-rule="nonzero"/><path fill="#321211" d="M 419.878906 97.046875 C 419.878906 97.046875 420.074219 97.046875 419.878906 97.046875 C 420.464844 97.4375 421.050781 97.828125 421.050781 98.410156 C 421.050781 98.996094 420.660156 99.582031 420.269531 99.972656 C 418.710938 101.140625 415.984375 101.53125 414.035156 101.917969 C 411.695312 102.308594 409.164062 102.503906 406.824219 102.699219 C 403.320312 102.894531 399.617188 102.894531 396.304688 101.726562 C 395.71875 101.53125 395.332031 101.335938 394.746094 100.945312 C 393.769531 99.972656 393.964844 98.800781 395.136719 98.023438 C 398.253906 96.074219 403.511719 95.488281 407.214844 95.292969 C 411.113281 95.097656 416.179688 95.292969 419.878906 97.046875 Z M 419.878906 97.046875 " fill-opacity="1" fill-rule="nonzero"/><path fill="#321211" d="M 339.605469 101.140625 C 343.890625 103.480469 346.621094 107.375 348.761719 111.664062 C 351.101562 116.730469 352.855469 121.992188 354.21875 127.449219 C 354.609375 128.816406 353.441406 129.59375 352.269531 129.59375 C 352.269531 129.59375 352.074219 129.59375 352.074219 129.59375 L 351.6875 129.59375 C 351.296875 129.59375 350.90625 129.398438 350.515625 129.011719 C 347.984375 126.28125 345.449219 123.359375 343.699219 120.042969 C 342.917969 118.484375 342.140625 116.535156 342.140625 114.78125 C 342.332031 113.222656 342.917969 111.664062 344.28125 110.886719 C 342.722656 108.15625 340.773438 105.816406 337.851562 104.257812 C 335.710938 103.285156 337.460938 100.164062 339.605469 101.140625 Z M 339.605469 101.140625 " fill-opacity="1" fill-rule="nonzero"/><path fill="#f5a0b6" d="M 373.898438 223.339844 C 373.898438 223.339844 394.550781 261.925781 402.539062 269.136719 L 431.179688 222.949219 C 431.179688 222.949219 449.300781 231.71875 455.144531 232.109375 L 442.285156 378.277344 L 347.59375 378.277344 L 345.644531 233.082031 Z M 373.898438 223.339844 " fill-opacity="1" fill-rule="nonzero"/><path fill="#f5a0b6" d="M 454.949219 232.304688 C 510.871094 241.074219 526.066406 269.527344 526.066406 269.527344 L 585.105469 354.5 L 586.273438 457.988281 L 491.96875 353.917969 L 347.398438 378.667969 L 302 392.3125 L 281.738281 493.65625 L 216.46875 492.484375 L 220.558594 471.632812 C 220.558594 471.632812 238.289062 370.679688 247.835938 314.160156 C 257.382812 257.640625 287.777344 252.378906 287.777344 252.378906 L 345.257812 233.472656 " fill-opacity="1" fill-rule="nonzero"/><path fill="#f8ab94" d="M 373.507812 223.535156 L 394.941406 271.28125 L 425.335938 233.082031 L 431.570312 223.339844 Z M 373.507812 223.535156 " fill-opacity="1" fill-rule="nonzero"/><path fill="#321211" d="M 449.105469 145.1875 C 440.726562 150.253906 430.011719 150.644531 421.4375 145.964844 C 420.269531 145.382812 419.296875 147.136719 420.464844 147.71875 C 429.621094 152.785156 441.117188 152.398438 450.078125 146.941406 C 451.25 146.160156 450.273438 144.40625 449.105469 145.1875 Z M 449.105469 145.1875 " fill-opacity="1" fill-rule="nonzero"/><path fill="#ffffff" d="M 410.722656 134.46875 C 397.472656 134.46875 386.757812 123.746094 386.757812 110.496094 C 386.757812 97.242188 397.472656 86.523438 410.722656 86.523438 C 423.972656 86.523438 434.6875 97.242188 434.6875 110.496094 C 434.6875 123.746094 423.972656 134.46875 410.722656 134.46875 Z M 410.722656 88.277344 C 398.449219 88.277344 388.511719 98.214844 388.511719 110.496094 C 388.511719 122.773438 398.449219 132.714844 410.722656 132.714844 C 422.996094 132.714844 432.933594 122.773438 432.933594 110.496094 C 432.933594 98.214844 422.800781 88.277344 410.722656 88.277344 Z M 410.722656 88.277344 " fill-opacity="1" fill-rule="nonzero"/><path fill="#ffffff" d="M 468.003906 135.246094 C 454.757812 135.246094 444.039062 124.527344 444.039062 111.273438 C 444.039062 98.023438 454.757812 87.304688 468.003906 87.304688 C 481.253906 87.304688 491.96875 98.023438 491.96875 111.273438 C 491.96875 124.527344 481.253906 135.246094 468.003906 135.246094 Z M 468.003906 89.058594 C 455.730469 89.058594 445.792969 98.996094 445.792969 111.273438 C 445.792969 123.554688 455.730469 133.492188 468.003906 133.492188 C 480.28125 133.492188 490.21875 123.554688 490.21875 111.273438 C 490.21875 98.996094 480.085938 89.058594 468.003906 89.058594 Z M 468.003906 89.058594 " fill-opacity="1" fill-rule="nonzero"/><path fill="#ffffff" d="M 444.429688 111.46875 L 434.6875 111.46875 C 433.324219 111.46875 433.324219 113.417969 434.6875 113.417969 L 444.429688 113.417969 C 445.792969 113.417969 445.792969 111.46875 444.429688 111.46875 Z M 444.429688 111.46875 " fill-opacity="1" fill-rule="nonzero"/><path fill="#ffffff" d="M 387.535156 105.816406 C 379.351562 104.257812 371.363281 102.308594 363.179688 100.164062 C 362.011719 99.777344 361.429688 101.726562 362.597656 102.113281 C 370.585938 104.257812 378.769531 106.207031 386.953125 107.765625 C 388.121094 107.960938 388.707031 106.011719 387.535156 105.816406 Z M 387.535156 105.816406 " fill-opacity="1" fill-rule="nonzero"/><path fill="#ffffff" d="M 490.410156 109.910156 C 484.957031 108.742188 479.695312 107.570312 474.238281 106.597656 C 473.070312 106.402344 472.488281 108.351562 473.65625 108.546875 C 479.109375 109.519531 484.371094 110.691406 489.828125 111.859375 C 491.191406 112.054688 491.582031 110.105469 490.410156 109.910156 Z M 490.410156 109.910156 " fill-opacity="1" fill-rule="nonzero"/><g clip-path="url(#dc64d5513d)"><path fill="#ffffff" d="M 757.730469 509.636719 L 591.144531 509.636719 C 586.273438 509.636719 582.375 505.738281 582.375 500.867188 L 582.375 235.226562 C 582.375 230.355469 586.273438 226.457031 591.144531 226.457031 L 757.730469 226.457031 C 762.601562 226.457031 766.5 230.355469 766.5 235.226562 L 766.5 500.867188 C 766.304688 505.738281 762.410156 509.636719 757.730469 509.636719 Z M 757.730469 509.636719 " fill-opacity="1" fill-rule="nonzero"/></g><path fill="#f5a0b6" d="M 280.765625 503.011719 C 280.765625 503.011719 278.035156 535.363281 255.046875 535.949219 C 231.859375 536.53125 89.429688 501.644531 89.429688 501.644531 Z M 280.765625 503.011719 " fill-opacity="1" fill-rule="nonzero"/><path fill="#f8ab94" d="M 645.503906 218.660156 C 645.308594 220.21875 643.945312 241.851562 643.359375 249.84375 C 643.167969 252.574219 645.113281 254.910156 647.84375 255.105469 C 649.207031 255.105469 650.375 254.714844 651.542969 252.960938 C 653.492188 249.84375 655.050781 240.878906 656.21875 234.253906 C 656.414062 233.667969 657.195312 233.667969 657.195312 234.253906 L 657.195312 254.910156 C 657.195312 255.105469 657.195312 255.300781 657.390625 255.300781 C 658.558594 256.273438 664.210938 260.171875 668.496094 255.691406 C 668.691406 255.496094 669.078125 255.496094 669.273438 255.691406 C 670.445312 257.054688 674.339844 260.367188 679.40625 255.496094 C 679.40625 255.496094 679.601562 255.300781 679.601562 255.300781 C 679.796875 253.742188 682.328125 240.488281 683.304688 234.058594 C 683.5 233.472656 684.277344 233.472656 684.277344 234.058594 L 686.226562 250.234375 C 686.226562 250.429688 686.226562 250.429688 686.421875 250.429688 C 687.003906 251.207031 690.707031 254.910156 693.824219 250.234375 L 696.550781 227.234375 C 696.550781 226.652344 696.359375 216.320312 685.835938 218.660156 C 685.640625 218.660156 685.640625 218.660156 685.445312 218.660156 C 684.472656 217.882812 679.210938 214.761719 672.003906 218.269531 C 671.808594 218.269531 671.613281 218.464844 671.417969 218.269531 C 670.054688 217.492188 667.328125 213.789062 660.507812 216.515625 C 660.3125 216.515625 660.117188 216.515625 659.921875 216.515625 C 657.585938 215.738281 648.039062 213.203125 645.699219 218.660156 C 645.503906 218.464844 645.503906 218.660156 645.503906 218.660156 Z M 645.503906 218.660156 " fill-opacity="1" fill-rule="nonzero"/><path fill="#321211" d="M 89.238281 501.644531 L 279.011719 511.976562 L 280.765625 500.671875 Z M 89.238281 501.644531 " fill-opacity="1" fill-rule="nonzero"/><path fill="#321211" d="M 670.445312 220.804688 C 669.664062 232.109375 668.886719 243.414062 668.105469 254.519531 C 668.105469 255.886719 670.054688 255.886719 670.054688 254.519531 C 670.832031 243.21875 671.613281 231.914062 672.390625 220.804688 C 672.585938 219.636719 670.640625 219.636719 670.445312 220.804688 Z M 670.445312 220.804688 " fill-opacity="1" fill-rule="nonzero"/><path fill="#321211" d="M 658.167969 216.90625 C 657.390625 222.167969 656.414062 227.625 655.441406 232.886719 C 655.246094 234.058594 657.195312 234.640625 657.390625 233.472656 C 658.363281 228.210938 659.339844 222.949219 660.117188 217.492188 C 660.3125 216.128906 658.363281 215.542969 658.167969 216.90625 Z M 658.167969 216.90625 " fill-opacity="1" fill-rule="nonzero"/><path fill="#321211" d="M 683.5 220.609375 C 683.304688 224.507812 683.109375 228.210938 683.109375 232.109375 C 683.109375 233.472656 685.058594 233.472656 685.058594 232.109375 C 685.058594 228.210938 685.058594 224.507812 685.445312 220.609375 C 685.640625 219.246094 683.691406 219.246094 683.5 220.609375 Z M 683.5 220.609375 " fill-opacity="1" fill-rule="nonzero"/><path fill="#321211" d="M 742.535156 369.117188 L 608.289062 369.117188 C 607.707031 369.117188 607.316406 368.730469 607.316406 368.144531 L 607.316406 267.578125 C 607.316406 266.996094 607.707031 266.605469 608.289062 266.605469 L 742.535156 266.605469 C 743.121094 266.605469 743.507812 266.996094 743.507812 267.578125 L 743.507812 367.949219 C 743.507812 368.730469 743.121094 369.117188 742.535156 369.117188 Z M 609.265625 367.167969 L 741.558594 367.167969 L 741.558594 268.75 L 609.265625 268.75 Z M 609.265625 367.167969 " fill-opacity="1" fill-rule="nonzero"/><path fill="#321211" d="M 614.523438 388.996094 L 736.105469 388.996094 L 736.105469 394.648438 L 614.523438 394.648438 Z M 614.523438 388.996094 " fill-opacity="1" fill-rule="nonzero"/><path fill="#321211" d="M 736.105469 395.625 L 614.523438 395.625 C 613.941406 395.625 613.550781 395.234375 613.550781 394.648438 L 613.550781 388.996094 C 613.550781 388.414062 613.941406 388.023438 614.523438 388.023438 L 736.105469 388.023438 C 736.691406 388.023438 737.078125 388.414062 737.078125 388.996094 L 737.078125 394.648438 C 737.078125 395.234375 736.691406 395.625 736.105469 395.625 Z M 615.5 393.675781 L 735.128906 393.675781 L 735.128906 390.167969 L 615.5 390.167969 Z M 615.5 393.675781 " fill-opacity="1" fill-rule="nonzero"/><path fill="#321211" d="M 614.523438 406.148438 L 736.105469 406.148438 L 736.105469 411.800781 L 614.523438 411.800781 Z M 614.523438 406.148438 " fill-opacity="1" fill-rule="nonzero"/><path fill="#321211" d="M 736.105469 412.773438 L 614.523438 412.773438 C 613.941406 412.773438 613.550781 412.386719 613.550781 411.800781 L 613.550781 406.148438 C 613.550781 405.5625 613.941406 405.175781 614.523438 405.175781 L 736.105469 405.175781 C 736.691406 405.175781 737.078125 405.5625 737.078125 406.148438 L 737.078125 411.800781 C 737.078125 412.191406 736.691406 412.773438 736.105469 412.773438 Z M 615.5 410.632812 L 735.128906 410.632812 L 735.128906 407.121094 L 615.5 407.121094 Z M 615.5 410.632812 " fill-opacity="1" fill-rule="nonzero"/><path fill="#321211" d="M 659.339844 347.289062 L 659.339844 367.363281 C 659.339844 368.730469 661.285156 368.730469 661.285156 367.363281 L 661.285156 347.289062 C 661.285156 346.121094 659.339844 346.121094 659.339844 347.289062 Z M 659.339844 347.289062 " fill-opacity="1" fill-rule="nonzero"/><path fill="#321211" d="M 694.214844 346.316406 L 694.214844 366.976562 C 694.214844 368.339844 696.164062 368.339844 696.164062 366.976562 L 696.164062 346.316406 C 696.164062 344.953125 694.214844 344.953125 694.214844 346.316406 Z M 694.214844 346.316406 " fill-opacity="1" fill-rule="nonzero"/><path fill="#321211" d="M 643.359375 293.5 L 643.359375 299.347656 L 609.265625 299.347656 C 607.898438 299.347656 607.898438 301.296875 609.265625 301.296875 L 643.359375 301.296875 L 643.359375 306.167969 C 643.359375 307.53125 645.308594 307.53125 645.308594 306.167969 L 645.308594 293.5 C 645.308594 292.136719 643.359375 292.136719 643.359375 293.5 Z M 643.359375 293.5 " fill-opacity="1" fill-rule="nonzero"/><path fill="#321211" d="M 741.949219 312.988281 L 712.722656 312.988281 L 712.722656 288.433594 L 740.78125 288.433594 C 742.144531 288.433594 742.144531 286.484375 740.78125 286.484375 L 711.554688 286.484375 C 710.582031 286.484375 710.386719 287.652344 710.777344 288.042969 L 710.777344 314.160156 C 710.777344 315.132812 711.945312 315.328125 712.335938 314.9375 L 741.949219 314.9375 C 743.3125 314.9375 743.3125 312.988281 741.949219 312.988281 Z M 741.949219 312.988281 " fill-opacity="1" fill-rule="nonzero"/><path fill="#321211" d="M 742.535156 468.320312 L 608.289062 468.320312 C 607.707031 468.320312 607.316406 467.929688 607.316406 467.34375 L 607.316406 438.109375 C 607.316406 437.527344 607.707031 437.136719 608.289062 437.136719 L 742.535156 437.136719 C 743.121094 437.136719 743.507812 437.527344 743.507812 438.109375 L 743.507812 467.34375 C 743.507812 467.929688 743.121094 468.320312 742.535156 468.320312 Z M 609.265625 466.371094 L 741.558594 466.371094 L 741.558594 439.085938 L 609.265625 439.085938 Z M 609.265625 466.371094 " fill-opacity="1" fill-rule="nonzero"/><path fill="#321211" d="M 742.339844 451.363281 L 717.207031 451.363281 L 717.207031 439.476562 C 717.207031 438.109375 715.257812 438.109375 715.257812 439.476562 L 715.257812 451.363281 L 689.734375 451.363281 L 689.734375 439.085938 C 689.734375 437.722656 687.785156 437.722656 687.785156 439.085938 L 687.785156 451.363281 L 659.921875 451.363281 L 659.921875 439.085938 C 659.921875 437.722656 657.972656 437.722656 657.972656 439.085938 L 657.972656 451.363281 L 632.449219 451.363281 L 632.449219 438.109375 C 632.449219 436.941406 630.5 436.941406 630.5 438.109375 L 630.5 451.363281 L 609.847656 451.363281 C 608.484375 451.363281 608.484375 453.3125 609.847656 453.3125 L 630.5 453.3125 L 630.5 466.957031 C 630.5 468.125 632.449219 468.125 632.449219 466.957031 L 632.449219 453.3125 L 657.972656 453.3125 L 657.972656 467.148438 C 657.972656 468.515625 659.921875 468.515625 659.921875 467.148438 L 659.921875 453.3125 L 687.785156 453.3125 L 687.785156 466.957031 C 687.785156 468.320312 689.734375 468.320312 689.734375 466.957031 L 689.734375 453.3125 L 715.257812 453.3125 L 715.257812 465.980469 C 715.257812 467.34375 717.207031 467.34375 717.207031 465.980469 L 717.207031 453.3125 L 742.339844 453.3125 C 743.703125 453.3125 743.703125 451.363281 742.339844 451.363281 Z M 742.339844 451.363281 " fill-opacity="1" fill-rule="nonzero"/><path fill="#321211" d="M 412.476562 294.28125 C 407.019531 286.679688 401.566406 279.273438 396.304688 271.671875 C 395.914062 271.085938 395.136719 271.085938 394.746094 271.476562 C 394.550781 271.476562 394.355469 271.476562 394.355469 271.671875 C 386.953125 277.324219 379.546875 282.78125 372.144531 288.042969 C 367.273438 268.554688 362.792969 248.871094 358.308594 229.378906 C 358.117188 228.210938 356.167969 228.601562 356.363281 229.964844 C 360.648438 249.84375 365.324219 269.527344 370.195312 289.210938 C 370.390625 289.796875 370.78125 289.992188 371.171875 289.992188 C 371.363281 290.382812 371.949219 290.769531 372.535156 290.382812 C 380.132812 284.925781 387.730469 279.273438 395.136719 273.621094 C 400.394531 281.027344 405.460938 288.238281 410.722656 295.449219 C 411.5 296.230469 413.253906 295.253906 412.476562 294.28125 Z M 412.476562 294.28125 " fill-opacity="1" fill-rule="nonzero"/><path fill="#321211" d="M 451.640625 223.921875 C 445.015625 238.539062 438 252.765625 430.597656 266.996094 C 430.011719 268.164062 431.765625 269.136719 432.351562 267.96875 C 439.753906 253.9375 446.769531 239.515625 453.390625 224.898438 C 453.78125 223.726562 452.027344 222.753906 451.640625 223.921875 Z M 451.640625 223.921875 " fill-opacity="1" fill-rule="nonzero"/><path fill="#7e2778" d="M 287 503.011719 L 177.304688 502.230469 C 175.550781 502.230469 174.1875 500.867188 174.1875 499.113281 L 174.1875 495.410156 C 174.1875 493.65625 175.550781 492.292969 177.304688 492.292969 L 287 492.292969 C 288.753906 492.292969 290.117188 493.65625 290.117188 495.410156 L 290.117188 499.890625 C 290.117188 501.453125 288.753906 503.011719 287 503.011719 Z M 287 503.011719 " fill-opacity="1" fill-rule="nonzero"/><path fill="#7e2778" d="M 236.144531 492.484375 L 187.242188 379.644531 C 185.097656 374.574219 179.640625 371.457031 173.796875 371.457031 L 9.546875 372.625 C 3.898438 372.625 0 377.890625 1.949219 382.566406 L 52.21875 496.773438 C 53.386719 499.503906 56.308594 501.453125 59.816406 501.453125 L 228.546875 502.425781 C 234.199219 502.425781 238.289062 497.359375 236.144531 492.484375 Z M 236.144531 492.484375 " fill-opacity="1" fill-rule="nonzero"/><path fill="#f5a0b6" d="M 128.117188 429.222656 C 128.425781 429.820312 128.703125 430.429688 128.953125 431.050781 C 129.207031 431.667969 129.429688 432.300781 129.625 432.9375 C 129.820312 433.574219 129.984375 434.21875 130.125 434.871094 C 130.261719 435.519531 130.367188 436.171875 130.445312 436.828125 C 130.523438 437.484375 130.570312 438.140625 130.589844 438.796875 C 130.605469 439.449219 130.59375 440.101562 130.550781 440.75 C 130.507812 441.398438 130.4375 442.039062 130.332031 442.675781 C 130.230469 443.308594 130.097656 443.933594 129.9375 444.546875 C 129.773438 445.164062 129.585938 445.765625 129.367188 446.355469 C 129.148438 446.945312 128.898438 447.519531 128.625 448.078125 C 128.351562 448.636719 128.050781 449.179688 127.722656 449.699219 C 127.398438 450.222656 127.046875 450.726562 126.667969 451.207031 C 126.292969 451.6875 125.894531 452.144531 125.472656 452.578125 C 125.050781 453.015625 124.605469 453.425781 124.140625 453.808594 C 123.675781 454.195312 123.195312 454.550781 122.695312 454.882812 C 122.191406 455.210938 121.675781 455.515625 121.140625 455.789062 C 120.605469 456.0625 120.058594 456.304688 119.496094 456.519531 C 118.9375 456.730469 118.363281 456.914062 117.78125 457.066406 C 117.199219 457.21875 116.605469 457.339844 116.007812 457.425781 C 115.40625 457.515625 114.800781 457.570312 114.191406 457.597656 C 113.582031 457.621094 112.96875 457.613281 112.355469 457.574219 C 111.738281 457.53125 111.125 457.460938 110.511719 457.355469 C 109.898438 457.253906 109.289062 457.117188 108.683594 456.949219 C 108.074219 456.78125 107.476562 456.585938 106.882812 456.355469 C 106.289062 456.128906 105.703125 455.871094 105.128906 455.582031 C 104.554688 455.292969 103.992188 454.980469 103.441406 454.636719 C 102.890625 454.289062 102.355469 453.921875 101.835938 453.523438 C 101.3125 453.125 100.808594 452.703125 100.324219 452.257812 C 99.835938 451.8125 99.371094 451.34375 98.921875 450.851562 C 98.476562 450.359375 98.050781 449.847656 97.648438 449.316406 C 97.242188 448.785156 96.863281 448.234375 96.507812 447.667969 C 96.152344 447.101562 95.820312 446.519531 95.515625 445.921875 C 95.207031 445.324219 94.929688 444.71875 94.679688 444.097656 C 94.425781 443.476562 94.203125 442.847656 94.007812 442.207031 C 93.8125 441.570312 93.648438 440.925781 93.507812 440.277344 C 93.371094 439.625 93.265625 438.972656 93.1875 438.316406 C 93.109375 437.660156 93.0625 437.003906 93.042969 436.351562 C 93.027344 435.695312 93.039062 435.042969 93.082031 434.394531 C 93.125 433.746094 93.195312 433.105469 93.300781 432.472656 C 93.402344 431.835938 93.535156 431.210938 93.695312 430.597656 C 93.859375 429.980469 94.046875 429.378906 94.265625 428.789062 C 94.484375 428.199219 94.734375 427.625 95.007812 427.066406 C 95.28125 426.507812 95.582031 425.96875 95.910156 425.445312 C 96.234375 424.921875 96.585938 424.421875 96.964844 423.941406 C 97.339844 423.457031 97.738281 423 98.160156 422.566406 C 98.582031 422.132812 99.027344 421.722656 99.492188 421.335938 C 99.957031 420.953125 100.4375 420.59375 100.9375 420.265625 C 101.441406 419.933594 101.957031 419.632812 102.492188 419.359375 C 103.027344 419.085938 103.574219 418.839844 104.136719 418.628906 C 104.695312 418.414062 105.269531 418.230469 105.851562 418.078125 C 106.433594 417.925781 107.027344 417.808594 107.625 417.71875 C 108.226562 417.628906 108.832031 417.574219 109.441406 417.550781 C 110.050781 417.523438 110.664062 417.53125 111.277344 417.574219 C 111.894531 417.613281 112.507812 417.683594 113.121094 417.789062 C 113.734375 417.894531 114.34375 418.027344 114.949219 418.195312 C 115.558594 418.363281 116.15625 418.558594 116.75 418.789062 C 117.34375 419.015625 117.929688 419.277344 118.503906 419.5625 C 119.078125 419.851562 119.640625 420.167969 120.191406 420.511719 C 120.742188 420.855469 121.277344 421.226562 121.796875 421.621094 C 122.320312 422.019531 122.824219 422.441406 123.308594 422.886719 C 123.796875 423.335938 124.261719 423.804688 124.710938 424.296875 C 125.15625 424.785156 125.582031 425.296875 125.984375 425.832031 C 126.390625 426.363281 126.769531 426.910156 127.125 427.476562 C 127.480469 428.046875 127.8125 428.625 128.117188 429.222656 Z M 128.117188 429.222656 " fill-opacity="1" fill-rule="nonzero"/><path fill="#7e2778" d="M 317.199219 240.097656 C 316.421875 240.292969 315.835938 241.074219 315.640625 241.851562 C 313.496094 250.625 299.664062 299.542969 293.820312 315.71875 C 287.972656 331.894531 283.101562 368.925781 300.832031 405.175781 C 300.832031 405.367188 301.027344 405.367188 301.027344 405.5625 C 302 409.265625 315.25 465.203125 306.09375 520.746094 L 299.859375 571.808594 C 299.664062 573.171875 300.832031 574.535156 302.195312 574.535156 L 491.191406 574.535156 C 492.75 574.535156 493.917969 572.976562 493.53125 571.417969 C 489.4375 558.75 477.164062 510.027344 481.449219 470.074219 C 483.789062 449.21875 492.359375 352.359375 492.359375 352.359375 C 492.359375 352.359375 446.378906 345.535156 497.621094 246.53125 C 498.207031 245.363281 497.816406 243.800781 496.648438 243.21875 C 491.386719 240.488281 476.773438 233.863281 456.703125 230.9375 C 455.925781 230.746094 454.949219 231.132812 454.367188 231.914062 C 446.769531 241.851562 390.460938 317.082031 380.910156 358.203125 C 380.328125 360.542969 377.210938 360.738281 376.234375 358.398438 C 368.246094 336.960938 348.570312 279.078125 355.972656 228.796875 C 355.972656 228.601562 356.167969 228.796875 355.972656 228.796875 Z M 317.199219 240.097656 " fill-opacity="1" fill-rule="nonzero"/><path fill="#ffffff" d="M 390.652344 500.867188 C 371.753906 500.867188 353.050781 499.890625 334.148438 497.941406 C 325.773438 497.164062 317.589844 496.578125 308.820312 494.433594 L 309.210938 477.871094 C 317.003906 479.816406 328.109375 481.378906 335.902344 482.15625 C 383.25 487.027344 433.910156 484.691406 480.863281 477.089844 L 480.667969 493.65625 C 450.859375 498.527344 420.855469 500.867188 390.652344 500.867188 Z M 390.652344 500.867188 " fill-opacity="1" fill-rule="nonzero"/><path fill="#ffffff" d="M 388.898438 537.507812 C 370 537.507812 351.296875 536.53125 332.398438 534.582031 C 324.019531 533.804688 313.496094 533.21875 304.730469 531.074219 L 307.066406 513.730469 C 314.859375 515.679688 326.355469 517.824219 334.148438 518.601562 C 381.496094 523.472656 434.6875 520.160156 481.644531 512.558594 L 483.789062 529.515625 C 453.976562 534.582031 419.101562 537.507812 388.898438 537.507812 Z M 388.898438 537.507812 " fill-opacity="1" fill-rule="nonzero"/><g clip-path="url(#5e12eee1ba)"><path fill="#321211" d="M 375.066406 408.878906 C 376.234375 393.285156 377.601562 377.695312 379.160156 362.101562 C 379.351562 360.738281 377.210938 360.933594 377.210938 362.101562 C 374.289062 389.582031 372.144531 417.0625 370.976562 444.738281 C 369.804688 472.414062 369.417969 499.890625 369.804688 527.566406 C 370 543.160156 370.585938 558.75 371.363281 574.339844 C 371.363281 575.707031 373.507812 575.707031 373.3125 574.339844 C 371.949219 546.667969 371.363281 519.1875 371.753906 491.511719 C 371.949219 464.03125 373.117188 436.355469 375.066406 408.878906 Z M 375.066406 408.878906 " fill-opacity="1" fill-rule="nonzero"/></g></svg>