<svg xmlns="http://www.w3.org/2000/svg" xmlns:xlink="http://www.w3.org/1999/xlink" width="1640" zoomAndPan="magnify" viewBox="0 0 1230 693.000001" height="924" preserveAspectRatio="xMidYMid meet" version="1.0"><defs><clipPath id="72b4c003fa"><path d="M 345.132812 323 L 547 323 L 547 519 L 345.132812 519 Z M 345.132812 323 " clip-rule="nonzero"/></clipPath></defs><path fill="#70504d" d="M 614.398438 72.410156 C 646.707031 72.628906 662.316406 102.175781 647.722656 130.253906 C 647.722656 130.253906 660.039062 235.917969 657.679688 264.519531 C 656.457031 279.292969 633.550781 301.867188 633.550781 301.867188 L 452.367188 315.660156 C 452.367188 315.660156 444.171875 293.808594 447.773438 267.582031 C 451.375 241.359375 460.988281 158.375 486.078125 106.886719 C 503.277344 71.601562 555.371094 20.894531 614.398438 72.410156 Z M 614.398438 72.410156 " fill-opacity="1" fill-rule="evenodd"/><path fill="#ff9d7e" d="M 492.371094 526.328125 C 492.371094 526.328125 435.238281 599.671875 392.417969 584.394531 C 374.476562 577.996094 378.523438 516.789062 378.523438 516.789062 L 429.949219 514.507812 L 471.632812 476.347656 Z M 492.371094 526.328125 " fill-opacity="1" fill-rule="evenodd"/><path fill="#ffd3bb" d="M 785.558594 417.5625 C 760.671875 434.253906 746.320312 344.417969 746.320312 344.417969 L 747.3125 226.5625 C 747.3125 226.5625 738.203125 157.511719 745.507812 156.617188 C 749.699219 156.105469 754.871094 191.316406 754.871094 191.316406 C 754.871094 191.316406 772.480469 191.570312 779.726562 194.867188 C 797.367188 202.875 797.625 227.429688 797.625 227.429688 C 797.625 227.429688 831.574219 386.699219 785.558594 417.5625 Z M 785.558594 417.5625 " fill-opacity="1" fill-rule="evenodd"/><path fill="#ff9d7e" d="M 583.179688 255.132812 C 583.179688 255.132812 649.675781 288.496094 673.386719 307.230469 C 701.65625 329.566406 733.679688 356.160156 733.679688 356.160156 L 742.335938 235.367188 L 813.3125 247.675781 C 813.3125 247.675781 816.894531 432.910156 796.304688 449.269531 C 753.441406 483.292969 670.09375 425.359375 664.117188 427.132812 L 665.015625 498.960938 L 687.539062 627.5 C 655.230469 647.082031 576.550781 657.0625 576.550781 657.0625 L 563.335938 609.929688 L 549.835938 657.9375 C 549.835938 657.9375 482.667969 650.496094 445.128906 632.84375 L 460.050781 497.183594 L 459.648438 465.632812 C 434.882812 458.800781 412.226562 449.035156 393.1875 434.21875 C 393.1875 434.21875 422.011719 337.335938 446.046875 307.613281 C 466.734375 282.035156 537.40625 255.898438 537.40625 255.898438 Z M 583.179688 255.132812 " fill-opacity="1" fill-rule="evenodd"/><g clip-path="url(#72b4c003fa)"><path fill="#ffede0" d="M 422.898438 518.859375 L 345.132812 457.472656 L 347.828125 323.085938 L 425.59375 384.679688 L 546.078125 349.632812 L 536.125 464.734375 Z M 422.898438 518.859375 " fill-opacity="1" fill-rule="evenodd"/></g><path fill="#ffd3bb" d="M 381.453125 518.589844 C 381.453125 518.589844 362.519531 486.238281 366.523438 474.082031 C 370.527344 461.925781 395.039062 444.847656 405.511719 445.65625 C 415.984375 446.46875 427.699219 469.1875 429.359375 478.945312 C 430.933594 488.230469 417.746094 503.683594 415.464844 504.191406 C 413.183594 504.695312 444.847656 504.625 445.324219 507.929688 C 445.804688 511.234375 418.367188 524.011719 418.367188 524.011719 C 403.269531 526.804688 390.226562 526.214844 381.453125 518.589844 Z M 381.453125 518.589844 " fill-opacity="1" fill-rule="evenodd"/><path fill="#ffede0" d="M 628.207031 276.074219 C 630.160156 294.960938 630.410156 329.738281 606.738281 334.238281 C 574.023438 340.460938 559.238281 310.488281 559.238281 310.488281 C 559.238281 310.488281 530.183594 347.667969 504.847656 327.152344 C 489.792969 314.957031 485.175781 294.589844 483.933594 280.070312 C 509.710938 266.140625 537.40625 255.898438 537.40625 255.898438 L 583.179688 255.132812 C 583.179688 255.132812 605.300781 264.09375 628.207031 276.074219 Z M 628.207031 276.074219 " fill-opacity="1" fill-rule="evenodd"/><path fill="#ffd3bb" d="M 620.507812 150.332031 C 624.492188 112.238281 596.566406 81.601562 567.664062 81.601562 C 538.9375 81.601562 497.742188 117.519531 501.167969 149.789062 C 492.070312 149.917969 484.734375 157.335938 484.734375 166.453125 C 484.734375 175.648438 492.207031 183.117188 501.398438 183.117188 C 501.457031 183.117188 501.496094 183.117188 501.550781 183.117188 C 506.78125 202.816406 520.628906 218.734375 538.554688 226.0625 L 538.554688 254.941406 L 558.492188 303.785156 L 583.179688 254.941406 L 583.179688 225.984375 C 601.203125 218.542969 615.085938 202.402344 620.164062 182.476562 C 621.617188 182.894531 623.148438 183.117188 624.738281 183.117188 C 633.933594 183.117188 641.402344 175.648438 641.402344 166.453125 C 641.402344 157.253906 633.933594 149.789062 624.738281 149.789062 C 623.285156 149.789062 621.867188 149.980469 620.507812 150.332031 Z M 620.507812 150.332031 " fill-opacity="1" fill-rule="evenodd"/><path fill="#70504d" d="M 577.949219 187.035156 C 574.175781 190.984375 568.71875 193.273438 563.183594 193.472656 C 557.726562 193.667969 552.230469 191.832031 548.1875 187.609375 C 547.726562 187.117188 547.746094 186.332031 548.226562 185.859375 C 548.722656 185.386719 549.507812 185.40625 549.988281 185.902344 C 553.511719 189.589844 558.320312 191.167969 563.089844 190.996094 C 567.972656 190.820312 572.816406 188.816406 576.152344 185.324219 C 576.628906 184.832031 577.414062 184.8125 577.914062 185.285156 C 578.390625 185.757812 578.410156 186.542969 577.949219 187.035156 Z M 577.949219 187.035156 " fill-opacity="1" fill-rule="evenodd"/><path fill="#70504d" d="M 567.664062 164.101562 C 567.800781 166.128906 567.167969 167.480469 565.882812 168.308594 C 564.5625 169.160156 562.4375 169.421875 559.546875 169.128906 C 559.125 169.085938 558.816406 168.707031 558.855469 168.292969 C 558.914062 167.871094 559.277344 167.566406 559.699219 167.609375 C 562.148438 167.859375 563.949219 167.742188 565.0625 167.027344 C 565.902344 166.480469 566.230469 165.546875 566.132812 164.207031 C 566.113281 163.789062 566.421875 163.421875 566.84375 163.390625 C 567.261719 163.363281 567.628906 163.679688 567.664062 164.101562 Z M 567.664062 164.101562 " fill-opacity="1" fill-rule="evenodd"/><path fill="#70504d" d="M 534.914062 153.90625 C 534.917969 154.390625 534.945312 154.871094 535.003906 155.34375 C 535.058594 155.820312 535.144531 156.28125 535.257812 156.730469 C 535.371094 157.175781 535.511719 157.601562 535.675781 158.003906 C 535.839844 158.40625 536.027344 158.777344 536.234375 159.121094 C 536.441406 159.464844 536.671875 159.769531 536.917969 160.039062 C 537.160156 160.308594 537.421875 160.535156 537.695312 160.71875 C 537.96875 160.90625 538.25 161.046875 538.539062 161.140625 C 538.828125 161.234375 539.121094 161.28125 539.417969 161.28125 C 539.710938 161.28125 540.003906 161.234375 540.296875 161.140625 C 540.585938 161.046875 540.867188 160.90625 541.140625 160.71875 C 541.414062 160.535156 541.671875 160.308594 541.917969 160.039062 C 542.164062 159.769531 542.390625 159.464844 542.597656 159.121094 C 542.808594 158.777344 542.996094 158.40625 543.160156 158.003906 C 543.324219 157.601562 543.460938 157.175781 543.574219 156.730469 C 543.6875 156.28125 543.773438 155.820312 543.832031 155.34375 C 543.886719 154.871094 543.917969 154.390625 543.917969 153.90625 C 543.917969 153.421875 543.886719 152.941406 543.832031 152.46875 C 543.773438 151.992188 543.6875 151.53125 543.574219 151.085938 C 543.460938 150.636719 543.324219 150.210938 543.160156 149.808594 C 542.996094 149.40625 542.808594 149.035156 542.597656 148.691406 C 542.390625 148.351562 542.164062 148.042969 541.917969 147.777344 C 541.671875 147.507812 541.414062 147.28125 541.140625 147.09375 C 540.867188 146.910156 540.585938 146.769531 540.296875 146.675781 C 540.003906 146.582031 539.710938 146.53125 539.417969 146.53125 C 539.121094 146.53125 538.828125 146.582031 538.539062 146.675781 C 538.25 146.769531 537.96875 146.910156 537.695312 147.09375 C 537.421875 147.28125 537.160156 147.507812 536.917969 147.777344 C 536.671875 148.042969 536.441406 148.351562 536.234375 148.691406 C 536.027344 149.035156 535.839844 149.40625 535.675781 149.808594 C 535.511719 150.210938 535.371094 150.636719 535.257812 151.085938 C 535.144531 151.53125 535.058594 151.992188 535.003906 152.46875 C 534.945312 152.941406 534.917969 153.421875 534.914062 153.90625 Z M 534.914062 153.90625 " fill-opacity="1" fill-rule="nonzero"/><path fill="#70504d" d="M 582.414062 153.90625 C 582.414062 154.390625 582.441406 154.871094 582.5 155.34375 C 582.558594 155.820312 582.644531 156.28125 582.757812 156.730469 C 582.867188 157.175781 583.007812 157.601562 583.171875 158.003906 C 583.335938 158.40625 583.523438 158.777344 583.730469 159.121094 C 583.941406 159.464844 584.167969 159.769531 584.414062 160.039062 C 584.660156 160.308594 584.917969 160.535156 585.191406 160.71875 C 585.464844 160.90625 585.746094 161.046875 586.035156 161.140625 C 586.324219 161.234375 586.617188 161.28125 586.914062 161.28125 C 587.207031 161.28125 587.503906 161.234375 587.792969 161.140625 C 588.082031 161.046875 588.363281 160.90625 588.636719 160.71875 C 588.910156 160.535156 589.167969 160.308594 589.414062 160.039062 C 589.660156 159.769531 589.886719 159.464844 590.097656 159.121094 C 590.304688 158.777344 590.492188 158.40625 590.65625 158.003906 C 590.820312 157.601562 590.960938 157.175781 591.074219 156.730469 C 591.183594 156.28125 591.269531 155.820312 591.328125 155.34375 C 591.386719 154.871094 591.414062 154.390625 591.414062 153.90625 C 591.414062 153.421875 591.386719 152.941406 591.328125 152.46875 C 591.269531 151.992188 591.183594 151.53125 591.074219 151.085938 C 590.960938 150.636719 590.820312 150.210938 590.65625 149.808594 C 590.492188 149.40625 590.304688 149.035156 590.097656 148.691406 C 589.886719 148.351562 589.660156 148.042969 589.414062 147.777344 C 589.167969 147.507812 588.910156 147.28125 588.636719 147.09375 C 588.363281 146.910156 588.082031 146.769531 587.792969 146.675781 C 587.503906 146.582031 587.207031 146.53125 586.914062 146.53125 C 586.617188 146.53125 586.324219 146.582031 586.035156 146.675781 C 585.746094 146.769531 585.464844 146.910156 585.191406 147.09375 C 584.917969 147.28125 584.660156 147.507812 584.414062 147.777344 C 584.167969 148.042969 583.941406 148.351562 583.730469 148.691406 C 583.523438 149.035156 583.335938 149.40625 583.171875 149.808594 C 583.007812 150.210938 582.867188 150.636719 582.757812 151.085938 C 582.644531 151.53125 582.558594 151.992188 582.5 152.46875 C 582.441406 152.941406 582.414062 153.421875 582.414062 153.90625 Z M 582.414062 153.90625 " fill-opacity="1" fill-rule="nonzero"/><path fill="#70504d" d="M 546.714844 139.054688 C 544.585938 137.128906 541.503906 136.101562 538.34375 136.175781 C 535.414062 136.242188 532.40625 137.261719 530.011719 139.4375 C 529.378906 140.011719 528.402344 139.96875 527.828125 139.335938 C 527.253906 138.707031 527.3125 137.730469 527.945312 137.15625 C 530.894531 134.453125 534.628906 133.171875 538.265625 133.085938 C 542.25 132.996094 546.117188 134.34375 548.78125 136.773438 C 549.414062 137.347656 549.46875 138.324219 548.894531 138.953125 C 548.320312 139.585938 547.34375 139.628906 546.714844 139.054688 Z M 546.714844 139.054688 " fill-opacity="1" fill-rule="evenodd"/><path fill="#70504d" d="M 596.507812 139.054688 C 594.382812 137.128906 591.300781 136.101562 588.140625 136.175781 C 585.210938 136.242188 582.203125 137.261719 579.808594 139.4375 C 579.175781 140.011719 578.199219 139.96875 577.625 139.335938 C 577.050781 138.707031 577.109375 137.730469 577.742188 137.15625 C 580.6875 134.453125 584.425781 133.171875 588.0625 133.085938 C 592.046875 132.996094 595.914062 134.34375 598.578125 136.773438 C 599.210938 137.347656 599.265625 138.324219 598.691406 138.953125 C 598.117188 139.585938 597.140625 139.628906 596.507812 139.054688 Z M 596.507812 139.054688 " fill-opacity="1" fill-rule="evenodd"/><path fill="#70504d" d="M 628.761719 134.847656 L 620.507812 150.332031 C 617.671875 135.1875 611.046875 121.175781 600.226562 108.417969 C 583.390625 124.335938 558.875 129.097656 516.144531 123.933594 C 515.992188 135.589844 510.707031 144.054688 501.015625 149.789062 L 493.164062 134.464844 C 493.164062 134.464844 531.296875 69.65625 566.515625 74.707031 C 601.738281 79.761719 632.074219 97.386719 628.761719 134.847656 Z M 628.761719 134.847656 " fill-opacity="1" fill-rule="evenodd"/></svg>