<svg xmlns="http://www.w3.org/2000/svg" xmlns:xlink="http://www.w3.org/1999/xlink" width="1640" zoomAndPan="magnify" viewBox="0 0 1230 693.000001" height="924" preserveAspectRatio="xMidYMid meet" version="1.0"><defs><clipPath id="72bb2bd683"><path d="M 214.480469 0 L 1015.824219 0 L 1015.824219 692 L 214.480469 692 Z M 214.480469 0 " clip-rule="nonzero"/></clipPath><clipPath id="35ef5e6b0f"><path d="M 512 76 L 1015.824219 76 L 1015.824219 580 L 512 580 Z M 512 76 " clip-rule="nonzero"/></clipPath></defs><g clip-path="url(#72bb2bd683)"><path fill="#fbeeec" d="M 938.875 363.308594 L 1015.8125 311.507812 L 932.769531 270.191406 L 972.882812 186.585938 L 880.34375 192.984375 L 872.59375 100.585938 L 805.4375 146.5 L 764.496094 76.21875 L 717.824219 156.347656 L 636.984375 110.871094 L 637.316406 203.59375 L 591.289062 204.429688 L 591.757812 0 L 214.511719 0 L 214.511719 461.128906 L 312.128906 461.128906 C 312.574219 461.210938 312.984375 461.339844 313.445312 461.402344 C 314.695312 461.570312 315.953125 461.695312 317.210938 461.792969 C 317.539062 461.816406 317.871094 461.824219 318.199219 461.84375 C 319.167969 461.898438 320.132812 461.929688 321.101562 461.933594 C 321.4375 461.933594 321.773438 461.929688 322.109375 461.921875 C 323.125 461.902344 324.136719 461.847656 325.144531 461.761719 C 325.40625 461.742188 325.664062 461.722656 325.921875 461.695312 C 327.183594 461.5625 328.441406 461.382812 329.683594 461.128906 L 345.664062 461.128906 C 342.195312 462.9375 338.941406 464.882812 335.996094 466.960938 C 335.796875 467.101562 335.597656 467.238281 335.40625 467.378906 C 334.066406 468.347656 332.792969 469.34375 331.605469 470.375 C 331.417969 470.535156 331.242188 470.699219 331.058594 470.863281 C 329.863281 471.933594 328.722656 473.023438 327.710938 474.15625 C 299.863281 505.363281 274.109375 593.253906 274.113281 619.234375 C 274.117188 635.796875 286.921875 645.25 294.457031 645.382812 L 289.898438 645.382812 C 286.949219 645.382812 284.558594 647.773438 284.558594 650.722656 C 284.558594 653.667969 286.949219 656.058594 289.898438 656.058594 L 214.511719 656.058594 L 214.511719 691.964844 L 777.179688 691.964844 L 777.179688 656.058594 L 611.496094 656.058594 C 615.695312 656.058594 619.425781 653.382812 620.769531 649.410156 L 656.3125 544.386719 L 725.351562 501.476562 L 775.480469 579.496094 L 818.613281 497.40625 L 901.355469 539.316406 L 896.976562 446.699219 L 989.558594 440.964844 Z M 352.664062 601.476562 C 352.597656 601.441406 352.507812 601.40625 352.507812 601.371094 C 352.507812 601.332031 352.539062 601.195312 352.574219 601.054688 C 352.597656 600.960938 352.632812 600.839844 352.671875 600.699219 Z M 499.632812 513.753906 C 499.632812 513.753906 499.730469 513.660156 499.886719 513.503906 C 499.921875 513.472656 499.984375 513.40625 500.027344 513.367188 C 500.183594 513.207031 500.390625 513.003906 500.652344 512.742188 C 500.726562 512.667969 500.808594 512.585938 500.886719 512.507812 C 501.242188 512.152344 501.667969 511.730469 502.167969 511.230469 C 502.167969 511.226562 502.167969 511.226562 502.171875 511.226562 C 509.207031 504.191406 529.921875 483.253906 549.789062 460.992188 L 557.960938 460.152344 L 560.730469 459.871094 L 642.863281 457.78125 L 645.109375 513.75 L 499.632812 513.75 Z M 499.632812 513.753906 " fill-opacity="1" fill-rule="nonzero"/></g><g clip-path="url(#35ef5e6b0f)"><path fill="#fec045" d="M 938.875 363.308594 L 1015.8125 311.507812 L 932.769531 270.191406 L 972.882812 186.585938 L 880.34375 192.984375 L 872.59375 100.585938 L 805.4375 146.5 L 764.496094 76.21875 L 717.824219 156.347656 L 636.984375 110.871094 L 637.316406 203.59375 L 591.289062 204.429688 L 544.574219 205.28125 L 587.375 277.5625 L 582.980469 256.402344 C 581.601562 249.765625 584.578125 242.984375 590.394531 239.503906 L 597.554688 235.21875 L 602.738281 224.335938 C 605.300781 218.957031 611.914062 216.917969 617.0625 219.917969 L 637.417969 231.792969 L 639.742188 233.148438 C 645.566406 236.542969 648.878906 243.019531 648.21875 249.730469 L 647.882812 253.175781 L 647.519531 256.871094 C 646.988281 262.285156 645.414062 267.542969 642.882812 272.355469 L 633.515625 290.183594 C 633.515625 290.183594 627.851562 309.015625 619.921875 332.527344 C 614.519531 348.558594 608.066406 366.742188 601.628906 382.664062 C 596.734375 394.761719 591.851562 405.550781 587.453125 413.042969 C 580 425.726562 565.59375 443.25 550.566406 460.128906 L 560.730469 459.871094 L 642.867188 457.785156 L 645.109375 513.753906 L 659.160156 513.753906 C 662.855469 513.753906 665.457031 517.378906 664.273438 520.875 L 656.316406 544.382812 L 725.351562 501.472656 L 775.480469 579.492188 L 818.613281 497.402344 L 901.355469 539.316406 L 896.980469 446.695312 L 989.5625 440.964844 Z M 751.824219 194.445312 C 755.546875 184.285156 767.828125 180.324219 776.789062 186.398438 C 783.136719 190.699219 787.371094 197.222656 788.976562 204.453125 C 789.738281 207.878906 789.960938 211.453125 789.441406 215.050781 L 781.144531 272.464844 L 864.878906 283.777344 C 875.378906 285.195312 883.210938 294.15625 883.210938 304.746094 L 883.210938 315.117188 C 883.210938 324.65625 876.824219 333.019531 867.621094 335.53125 L 857.644531 398.84375 C 855.503906 412.425781 844.605469 422.941406 830.949219 424.597656 L 807.128906 427.484375 C 797.613281 428.640625 787.984375 428.457031 778.519531 426.941406 L 671.152344 409.761719 L 671.152344 299.960938 L 724.902344 267.96875 L 748.160156 204.453125 Z M 587.703125 287.59375 L 547.0625 352.476562 L 512.699219 333.46875 Z M 587.703125 287.59375 " fill-opacity="1" fill-rule="nonzero"/></g><path fill="#4724e3" d="M 292.097656 131.207031 C 292.097656 130.230469 292.890625 129.441406 293.867188 129.441406 L 448.5625 129.441406 C 449.542969 129.441406 450.332031 130.230469 450.332031 131.207031 C 450.332031 132.1875 449.539062 132.976562 448.5625 132.976562 L 293.871094 132.976562 C 292.890625 132.976562 292.097656 132.1875 292.097656 131.207031 Z M 462.113281 155.996094 L 462.113281 106.421875 C 462.113281 105.445312 462.90625 104.65625 463.882812 104.65625 L 513.472656 104.65625 C 514.453125 104.65625 515.242188 105.445312 515.242188 106.421875 L 515.242188 114.375 L 524.449219 105.171875 C 525.140625 104.480469 526.257812 104.480469 526.949219 105.171875 C 527.640625 105.863281 527.640625 106.984375 526.949219 107.675781 L 515.242188 119.378906 L 515.242188 155.996094 C 515.242188 156.972656 514.449219 157.765625 513.472656 157.765625 L 463.882812 157.765625 C 462.902344 157.761719 462.113281 156.972656 462.113281 155.996094 Z M 465.652344 154.226562 L 511.707031 154.226562 L 511.707031 122.914062 L 491.390625 143.222656 C 491.042969 143.566406 490.589844 143.742188 490.136719 143.742188 C 489.6875 143.742188 489.230469 143.566406 488.886719 143.222656 L 471.105469 125.449219 C 470.414062 124.757812 470.414062 123.636719 471.105469 122.945312 C 471.796875 122.253906 472.917969 122.253906 473.609375 122.945312 L 490.136719 139.46875 L 511.707031 117.910156 L 511.707031 108.191406 L 465.652344 108.191406 Z M 293.871094 217.464844 L 448.566406 217.464844 C 449.542969 217.464844 450.332031 216.671875 450.332031 215.695312 C 450.332031 214.71875 449.542969 213.925781 448.566406 213.925781 L 293.871094 213.925781 C 292.890625 213.925781 292.101562 214.71875 292.101562 215.695312 C 292.097656 216.671875 292.890625 217.464844 293.871094 217.464844 Z M 293.871094 301.953125 L 448.566406 301.953125 C 449.542969 301.953125 450.332031 301.160156 450.332031 300.183594 C 450.332031 299.207031 449.542969 298.417969 448.566406 298.417969 L 293.871094 298.417969 C 292.890625 298.417969 292.101562 299.207031 292.101562 300.183594 C 292.097656 301.160156 292.890625 301.953125 293.871094 301.953125 Z M 526.953125 189.65625 C 527.644531 190.347656 527.644531 191.46875 526.953125 192.160156 L 515.246094 203.863281 L 515.246094 240.484375 C 515.246094 241.460938 514.453125 242.253906 513.476562 242.253906 L 463.882812 242.253906 C 462.90625 242.253906 462.113281 241.460938 462.113281 240.484375 L 462.113281 190.90625 C 462.113281 189.929688 462.90625 189.140625 463.882812 189.140625 L 513.476562 189.140625 C 514.453125 189.140625 515.246094 189.929688 515.246094 190.90625 L 515.246094 198.859375 L 524.449219 189.65625 C 525.140625 188.964844 526.261719 188.964844 526.953125 189.65625 Z M 511.707031 192.675781 L 465.652344 192.675781 L 465.652344 238.714844 L 511.707031 238.714844 L 511.707031 207.398438 L 491.390625 227.710938 C 491.058594 228.042969 490.609375 228.230469 490.136719 228.230469 C 489.667969 228.230469 489.21875 228.042969 488.886719 227.710938 L 471.105469 209.933594 C 470.414062 209.242188 470.414062 208.125 471.105469 207.433594 C 471.796875 206.742188 472.917969 206.742188 473.609375 207.433594 L 490.136719 223.960938 L 511.707031 202.398438 Z M 526.953125 274.144531 C 527.644531 274.835938 527.644531 275.953125 526.953125 276.648438 L 515.246094 288.347656 L 515.246094 324.96875 C 515.246094 325.945312 514.453125 326.734375 513.476562 326.734375 L 463.882812 326.734375 C 462.90625 326.734375 462.113281 325.945312 462.113281 324.96875 L 462.113281 275.394531 C 462.113281 274.417969 462.90625 273.628906 463.882812 273.628906 L 513.476562 273.628906 C 514.453125 273.628906 515.246094 274.417969 515.246094 275.394531 L 515.246094 283.347656 L 524.449219 274.144531 C 525.140625 273.453125 526.261719 273.453125 526.953125 274.144531 Z M 511.707031 277.164062 L 465.652344 277.164062 L 465.652344 323.199219 L 511.707031 323.199219 L 511.707031 291.886719 L 491.390625 312.195312 C 491.042969 312.542969 490.589844 312.714844 490.136719 312.714844 C 489.6875 312.714844 489.230469 312.542969 488.886719 312.195312 L 471.105469 294.421875 C 470.414062 293.730469 470.414062 292.609375 471.105469 291.917969 C 471.796875 291.226562 472.917969 291.226562 473.609375 291.917969 L 490.136719 308.441406 L 511.707031 286.882812 Z M 467.878906 341.714844 C 467.726562 341.472656 467.578125 341.230469 467.421875 340.992188 C 467.160156 340.597656 466.894531 340.210938 466.621094 339.832031 C 466.398438 339.515625 466.167969 339.21875 465.9375 338.917969 C 465.707031 338.613281 465.476562 338.304688 465.242188 338.015625 C 464.785156 337.460938 464.320312 336.945312 463.855469 336.453125 C 463.679688 336.269531 463.507812 336.105469 463.332031 335.933594 C 462.964844 335.570312 462.601562 335.230469 462.234375 334.910156 C 462.074219 334.773438 461.917969 334.636719 461.757812 334.507812 C 461.246094 334.09375 460.734375 333.710938 460.238281 333.410156 C 449.714844 326.988281 438.847656 325.007812 428.957031 326.070312 C 427.433594 326.230469 425.933594 326.457031 424.460938 326.757812 C 423.082031 327.039062 421.730469 327.382812 420.402344 327.78125 C 418.347656 328.398438 416.390625 329.183594 414.488281 330.046875 C 407.800781 333.089844 402.125 337.542969 398.15625 342.804688 C 396.003906 345.660156 394.4375 348.667969 393.332031 351.722656 C 391.121094 357.835938 390.75 364.132812 391.1875 369.777344 C 391.414062 372.71875 391.859375 375.472656 392.378906 377.941406 C 385.503906 375.894531 370.25 372.785156 357.703125 380.484375 C 344.3125 388.703125 341.117188 404.402344 331.726562 410.320312 C 322.339844 416.234375 313.792969 413.71875 302.003906 421.214844 C 285.402344 431.765625 290.171875 457.148438 312.125 461.128906 C 312.574219 461.207031 312.984375 461.335938 313.445312 461.402344 C 314.695312 461.570312 315.953125 461.695312 317.210938 461.789062 C 317.539062 461.816406 317.867188 461.824219 318.195312 461.84375 C 319.164062 461.898438 320.132812 461.929688 321.097656 461.933594 C 321.4375 461.933594 321.773438 461.925781 322.109375 461.921875 C 323.125 461.902344 324.132812 461.847656 325.144531 461.761719 C 325.402344 461.738281 325.664062 461.722656 325.921875 461.695312 C 327.183594 461.5625 328.4375 461.382812 329.679688 461.128906 C 341.75 458.660156 352.679688 450.113281 358.230469 429.152344 C 366.113281 399.375 368.695312 381.632812 392.710938 379.445312 C 392.75 379.609375 392.785156 379.789062 392.824219 379.949219 C 393.347656 382.152344 393.902344 384.046875 394.355469 385.539062 C 399.894531 403.703125 410.964844 425.328125 410.964844 425.328125 L 418.554688 401.46875 C 415.785156 400.054688 413.03125 397.875 410.699219 394.488281 C 406.070312 387.769531 407.445312 375.957031 419.320312 374.710938 C 426.292969 373.980469 431.515625 376.914062 434.652344 379.464844 C 445.742188 375.4375 462.980469 365.953125 469.613281 344.804688 C 469.609375 344.800781 469.609375 344.792969 469.605469 344.789062 C 469.085938 343.734375 468.496094 342.707031 467.878906 341.714844 Z M 467.878906 341.714844 " fill-opacity="1" fill-rule="nonzero"/><path fill="#ff6068" d="M 414.492188 330.050781 C 411.148438 331.570312 408.058594 333.445312 405.304688 335.59375 C 408.058594 333.445312 411.148438 331.570312 414.492188 330.050781 Z M 401.445312 339.019531 C 400.25 340.222656 399.152344 341.488281 398.160156 342.804688 C 397.621094 343.519531 397.117188 344.246094 396.652344 344.976562 C 397.117188 344.246094 397.621094 343.519531 398.160156 342.804688 C 399.152344 341.488281 400.25 340.226562 401.445312 339.019531 Z M 392.378906 377.945312 C 392.121094 376.707031 391.878906 375.402344 391.675781 374.039062 C 391.878906 375.402344 392.121094 376.710938 392.378906 377.945312 Z M 410.703125 394.488281 C 413.035156 397.875 415.785156 400.050781 418.558594 401.46875 L 410.96875 425.324219 L 410.882812 441.40625 L 457.238281 441.40625 L 457.445312 434.941406 C 457.597656 430.34375 460.902344 426.460938 465.417969 425.578125 L 476.757812 423.363281 C 481.175781 422.257812 484.105469 418.070312 483.625 413.542969 L 482.117188 399.273438 C 481.828125 396.539062 482.691406 393.8125 484.503906 391.746094 L 487.714844 388.070312 C 490.105469 385.53125 489.96875 381.070312 486.890625 379.4375 C 481.480469 376.566406 474.832031 371.914062 474.269531 367.433594 C 473.757812 363.355469 473.460938 357.261719 471.753906 350.421875 C 471.285156 348.554688 470.535156 346.652344 469.617188 344.800781 C 462.984375 365.949219 445.75 375.433594 434.660156 379.457031 C 431.519531 376.90625 426.296875 373.972656 419.324219 374.707031 C 407.449219 375.953125 406.074219 387.769531 410.703125 394.488281 Z M 664.273438 520.875 L 656.316406 544.382812 L 620.769531 649.40625 C 619.425781 653.378906 615.695312 656.054688 611.5 656.054688 L 289.898438 656.054688 C 286.949219 656.054688 284.558594 653.664062 284.558594 650.71875 C 284.558594 647.773438 286.949219 645.382812 289.898438 645.382812 L 405.425781 645.382812 L 419.933594 602.527344 L 447.726562 520.402344 C 449.074219 516.429688 452.804688 513.753906 457 513.753906 L 659.160156 513.753906 C 662.851562 513.753906 665.453125 517.378906 664.273438 520.875 Z M 553.839844 584.90625 C 553.839844 576.804688 547.273438 570.242188 539.171875 570.242188 C 531.074219 570.242188 524.503906 576.804688 524.503906 584.90625 C 524.503906 593.003906 531.074219 599.566406 539.171875 599.566406 C 547.273438 599.566406 553.839844 593.003906 553.839844 584.90625 Z M 587.375 277.5625 L 589.019531 285.488281 L 633.511719 290.183594 L 642.882812 272.355469 C 645.414062 267.539062 646.988281 262.28125 647.519531 256.867188 L 647.878906 253.175781 L 648.21875 249.730469 C 648.875 243.019531 645.5625 236.542969 639.738281 233.144531 L 637.414062 231.789062 L 617.058594 219.917969 C 611.914062 216.917969 605.296875 218.953125 602.738281 224.332031 L 597.554688 235.214844 L 590.394531 239.5 C 584.578125 242.984375 581.601562 249.765625 582.980469 256.402344 Z M 587.375 277.5625 " fill-opacity="1" fill-rule="nonzero"/><path fill="#7b95f9" d="M 633.511719 290.183594 L 589.019531 285.488281 L 587.703125 287.589844 L 547.0625 352.476562 L 539.558594 364.460938 C 532.761719 375.308594 524.3125 385.027344 514.507812 393.265625 L 457.238281 441.40625 L 410.882812 441.40625 C 410.878906 441.40625 372.246094 447.296875 345.664062 461.125 C 342.195312 462.933594 338.941406 464.878906 335.996094 466.957031 C 335.796875 467.097656 335.597656 467.234375 335.40625 467.375 C 334.066406 468.34375 332.792969 469.339844 331.605469 470.371094 C 331.417969 470.53125 331.242188 470.695312 331.058594 470.859375 C 329.863281 471.929688 328.722656 473.019531 327.710938 474.152344 C 299.863281 505.359375 274.109375 593.25 274.113281 619.230469 C 274.117188 635.792969 286.921875 645.246094 294.457031 645.378906 L 405.425781 645.378906 L 419.933594 602.523438 L 447.726562 520.398438 C 449.074219 516.425781 452.804688 513.75 457 513.75 L 499.632812 513.75 C 499.632812 513.75 499.730469 513.65625 499.886719 513.503906 C 499.921875 513.46875 499.984375 513.40625 500.027344 513.363281 C 500.183594 513.207031 500.390625 513 500.652344 512.738281 C 500.726562 512.667969 500.808594 512.585938 500.886719 512.507812 C 501.242188 512.152344 501.667969 511.730469 502.167969 511.226562 C 502.167969 511.226562 502.167969 511.226562 502.171875 511.222656 C 509.207031 504.1875 529.921875 483.25 549.789062 460.992188 C 550.046875 460.703125 550.308594 460.414062 550.566406 460.125 C 565.589844 443.246094 580 425.722656 587.449219 413.039062 C 591.851562 405.546875 596.734375 394.753906 601.625 382.660156 C 608.066406 366.734375 614.519531 348.554688 619.921875 332.523438 C 627.847656 309.015625 633.511719 290.183594 633.511719 290.183594 Z M 352.507812 601.371094 C 352.507812 601.328125 352.539062 601.195312 352.574219 601.054688 C 352.597656 600.957031 352.632812 600.835938 352.671875 600.699219 L 352.664062 601.472656 C 352.597656 601.441406 352.507812 601.40625 352.507812 601.371094 Z M 352.507812 601.371094 " fill-opacity="1" fill-rule="nonzero"/></svg>