<svg xmlns="http://www.w3.org/2000/svg" xmlns:xlink="http://www.w3.org/1999/xlink" width="1640" zoomAndPan="magnify" viewBox="0 0 1230 693.000001" height="924" preserveAspectRatio="xMidYMid meet" version="1.0"><path fill="#8b371a" d="M 600.980469 100.722656 C 600.980469 100.722656 599.363281 120.8125 606.070312 123.621094 C 606.070312 123.621094 561.527344 131.617188 569.839844 102.5 C 577.585938 75.378906 578.535156 74.320312 606.566406 79.304688 C 606.566406 79.304688 600.980469 100.722656 600.980469 100.722656 Z M 600.980469 100.722656 " fill-opacity="1" fill-rule="nonzero"/><path fill="#e4bea0" d="M 601.980469 645.507812 C 601.980469 645.507812 616.878906 645.507812 616.878906 645.507812 C 616.878906 645.507812 624.328125 452.738281 624.328125 452.738281 C 624.328125 452.738281 588.941406 452.738281 588.941406 452.738281 C 588.941406 452.738281 601.980469 645.507812 601.980469 645.507812 Z M 601.980469 645.507812 " fill-opacity="1" fill-rule="nonzero"/><path fill="#ec5e5c" d="M 607.328125 655.761719 C 602.390625 655.617188 600.121094 650.371094 600.121094 650.371094 C 600.121094 650.371094 599.378906 644.332031 599.996094 641.390625 C 600.617188 638.449219 602.050781 639.234375 602.050781 639.234375 C 602.050781 639.234375 615.90625 639.117188 615.90625 639.117188 C 615.90625 639.117188 631.847656 642.964844 636.730469 648.503906 C 639.074219 651.160156 637.972656 655.453125 637.972656 655.453125 C 637.972656 655.453125 607.328125 655.761719 607.328125 655.761719 Z M 607.328125 655.761719 " fill-opacity="1" fill-rule="nonzero"/><path fill="#e4bea0" d="M 539.582031 645.507812 C 539.582031 645.507812 554.484375 645.507812 554.484375 645.507812 C 554.484375 645.507812 561.933594 452.738281 561.933594 452.738281 C 561.933594 452.738281 526.546875 452.738281 526.546875 452.738281 C 526.546875 452.738281 539.582031 645.507812 539.582031 645.507812 Z M 539.582031 645.507812 " fill-opacity="1" fill-rule="nonzero"/><path fill="#ec5e5c" d="M 544.9375 655.761719 C 539.996094 655.617188 537.726562 650.371094 537.726562 650.371094 C 537.726562 650.371094 536.984375 644.332031 537.601562 641.390625 C 538.222656 638.449219 539.65625 639.234375 539.65625 639.234375 C 539.65625 639.234375 553.511719 639.117188 553.511719 639.117188 C 553.511719 639.117188 569.453125 642.964844 574.335938 648.503906 C 576.679688 651.160156 575.578125 655.453125 575.578125 655.453125 C 575.578125 655.453125 544.9375 655.761719 544.9375 655.761719 Z M 544.9375 655.761719 " fill-opacity="1" fill-rule="nonzero"/><path fill="#e9b858" d="M 532.066406 287.90625 C 532.066406 287.90625 499.851562 485.515625 504.128906 492.78125 C 522.753906 524.445312 641.421875 522.527344 654.992188 491.851562 C 654.992188 491.851562 632.453125 314.214844 629.847656 281.386719 C 629.847656 281.386719 532.066406 287.90625 532.066406 287.90625 Z M 532.066406 287.90625 " fill-opacity="1" fill-rule="nonzero"/><path fill="#e4bea0" d="M 617.320312 178.328125 C 617.320312 178.328125 698.878906 251.820312 698.878906 251.820312 C 698.878906 251.820312 698.433594 233.199219 698.433594 233.199219 C 698.433594 233.199219 617.320312 155.066406 617.320312 155.066406 C 617.320312 155.066406 617.320312 178.328125 617.320312 178.328125 Z M 617.320312 178.328125 " fill-opacity="1" fill-rule="nonzero"/><path fill="#ece3da" d="M 573.972656 125.867188 C 556.339844 125.867188 533 141.699219 533.929688 174.292969 C 534.859375 206.886719 558.140625 229.238281 533.929688 281.386719 C 533.929688 281.386719 518.097656 313.050781 579.5625 313.050781 C 641.023438 313.050781 629.847656 281.386719 629.847656 281.386719 C 629.847656 281.386719 614.015625 232.03125 621.46875 182.675781 C 628.917969 133.320312 598.1875 125.867188 573.972656 125.867188 Z M 573.972656 125.867188 " fill-opacity="1" fill-rule="nonzero"/><path fill="#e4bea0" d="M 562.796875 85.824219 C 562.796875 85.824219 571.179688 118.417969 559.074219 131.453125 C 559.074219 131.453125 559.074219 149.148438 579.5625 149.148438 C 597.253906 149.148438 596.324219 129.59375 596.324219 129.59375 C 596.324219 129.59375 577.699219 131.453125 586.078125 85.824219 C 590.46875 61.9375 562.796875 85.824219 562.796875 85.824219 Z M 562.796875 85.824219 " fill-opacity="1" fill-rule="nonzero"/><path fill="#ece3da" d="M 610.511719 136.128906 C 610.511719 136.128906 626.6875 146.160156 639.722656 158.269531 C 639.722656 158.269531 621.183594 191.484375 621.183594 191.484375 C 621.183594 191.484375 602.960938 171.5 602.960938 171.5 C 602.960938 171.5 601.304688 140.800781 610.511719 136.128906 Z M 610.511719 136.128906 " fill-opacity="1" fill-rule="nonzero"/><path fill="#ec5e5c" d="M 720.179688 383.824219 C 720.179688 383.824219 356.992188 383.824219 356.992188 383.824219 C 356.992188 383.824219 356.992188 219.925781 356.992188 219.925781 C 356.992188 219.925781 720.179688 219.925781 720.179688 219.925781 C 720.179688 219.925781 720.179688 383.824219 720.179688 383.824219 Z M 720.179688 383.824219 " fill-opacity="1" fill-rule="nonzero"/><path fill="#ec5e5c" d="M 715.523438 499.230469 C 715.523438 499.230469 912.414062 302.339844 912.414062 302.339844 C 912.414062 302.339844 715.523438 105.449219 715.523438 105.449219 C 715.523438 105.449219 715.523438 499.230469 715.523438 499.230469 Z M 715.523438 499.230469 " fill-opacity="1" fill-rule="nonzero"/><path fill="#e4bea0" d="M 523.75 171.621094 C 523.75 171.621094 475.292969 239.789062 475.292969 239.789062 C 475.292969 239.789062 464.738281 255.132812 473.304688 259.441406 C 481.871094 263.75 491.53125 249.371094 491.53125 249.371094 C 491.53125 249.371094 540.039062 181.28125 540.039062 181.28125 C 540.039062 181.28125 523.75 171.621094 523.75 171.621094 Z M 523.75 171.621094 " fill-opacity="1" fill-rule="nonzero"/><path fill="#ece3da" d="M 544.457031 140.191406 C 544.457031 140.191406 524.46875 154.292969 514.578125 169.082031 C 514.578125 169.082031 539.300781 197.664062 539.300781 197.664062 C 539.300781 197.664062 559.976562 174.40625 559.976562 174.40625 C 559.976562 174.40625 554.496094 142.609375 544.457031 140.191406 Z M 544.457031 140.191406 " fill-opacity="1" fill-rule="nonzero"/><path fill="#e4bea0" d="M 471.535156 257.175781 C 471.535156 265.558594 545.105469 272.074219 545.105469 272.074219 C 545.105469 272.074219 545.105469 260.898438 545.105469 260.898438 C 545.105469 260.898438 484.574219 239.480469 484.574219 239.480469 C 484.574219 239.480469 471.535156 251.226562 471.535156 257.175781 Z M 471.535156 257.175781 " fill-opacity="1" fill-rule="nonzero"/><path fill="#ec5e5c" d="M 560.15625 128.914062 C 560.15625 128.914062 568.65625 159.8125 579.46875 161.355469 C 590.285156 162.902344 593.375 128.140625 593.375 128.140625 C 593.375 128.140625 590.757812 126.59375 590.757812 126.59375 C 590.757812 126.59375 588.738281 159.039062 579.46875 157.496094 C 570.199219 155.949219 562.324219 126.59375 562.324219 126.59375 C 562.324219 126.59375 560.15625 128.914062 560.15625 128.914062 Z M 560.15625 128.914062 " fill-opacity="1" fill-rule="nonzero"/><path fill="#e4bea0" d="M 531.796875 257.628906 C 531.796875 257.628906 546.046875 260.46875 546.046875 260.46875 C 546.046875 260.46875 563.851562 259.105469 563.851562 259.105469 C 563.851562 259.105469 574.429688 261.582031 574.429688 261.582031 C 574.429688 261.582031 573.925781 276.605469 573.925781 276.605469 C 573.925781 276.605469 563.046875 276.285156 559.589844 275.464844 C 555.796875 274.5625 545.105469 272.074219 545.105469 272.074219 C 545.105469 272.074219 519.363281 267.542969 519.363281 267.542969 C 519.363281 267.542969 520.792969 256.535156 531.796875 257.628906 Z M 531.796875 257.628906 " fill-opacity="1" fill-rule="nonzero"/><path fill="#e4bea0" d="M 554.8125 260.863281 C 554.8125 260.863281 567.191406 256.015625 567.191406 256.015625 C 567.191406 256.015625 578.390625 258.304688 578.390625 258.304688 C 578.390625 258.304688 577.300781 261.347656 571.191406 260.195312 C 571.191406 260.195312 565.992188 264.171875 565.992188 264.171875 C 565.992188 264.171875 554.8125 260.863281 554.8125 260.863281 Z M 554.8125 260.863281 " fill-opacity="1" fill-rule="nonzero"/><path fill="#e4bea0" d="M 570.898438 261.070312 C 570.898438 261.070312 590.425781 264.105469 590.425781 264.105469 C 590.425781 264.105469 593.5625 264.898438 592.617188 265.996094 C 591.671875 267.089844 589.632812 267.242188 589.632812 267.242188 C 589.632812 267.242188 567.921875 264.746094 567.921875 264.746094 C 567.921875 264.746094 570.898438 261.070312 570.898438 261.070312 Z M 570.898438 261.070312 " fill-opacity="1" fill-rule="nonzero"/><path fill="#e4bea0" d="M 569.386719 268.359375 C 569.386719 268.359375 588.914062 271.394531 588.914062 271.394531 C 588.914062 271.394531 592.050781 272.1875 591.105469 273.285156 C 590.160156 274.378906 588.121094 274.53125 588.121094 274.53125 C 588.121094 274.53125 566.410156 272.035156 566.410156 272.035156 C 566.410156 272.035156 569.386719 268.359375 569.386719 268.359375 Z M 569.386719 268.359375 " fill-opacity="1" fill-rule="nonzero"/><path fill="#e4bea0" d="M 565.535156 271.71875 C 565.535156 271.71875 585.0625 274.753906 585.0625 274.753906 C 585.0625 274.753906 588.199219 275.546875 587.253906 276.644531 C 586.308594 277.738281 584.269531 277.890625 584.269531 277.890625 C 584.269531 277.890625 562.558594 275.394531 562.558594 275.394531 C 562.558594 275.394531 565.535156 271.71875 565.535156 271.71875 Z M 565.535156 271.71875 " fill-opacity="1" fill-rule="nonzero"/><path fill="#e4bea0" d="M 571.199219 265.152344 C 571.199219 265.152344 592.765625 268.035156 592.765625 268.035156 C 592.765625 268.035156 595.902344 268.828125 594.957031 269.921875 C 594.011719 271.019531 591.972656 271.167969 591.972656 271.167969 C 591.972656 271.167969 568.222656 268.824219 568.222656 268.824219 C 568.222656 268.824219 571.199219 265.152344 571.199219 265.152344 Z M 571.199219 265.152344 " fill-opacity="1" fill-rule="nonzero"/><path fill="#ece3da" d="M 544.707031 258.691406 C 544.707031 258.691406 542.390625 274.140625 544.707031 274.914062 C 547.023438 275.6875 548.21875 272.800781 548.21875 272.800781 C 548.21875 272.800781 549.34375 259.464844 549.34375 259.464844 C 549.34375 259.464844 546.253906 255.601562 544.707031 258.691406 Z M 544.707031 258.691406 " fill-opacity="1" fill-rule="nonzero"/><path fill="#e4bea0" d="M 602.453125 87.554688 C 600.785156 102.722656 596.890625 119.488281 591.988281 118.949219 C 576.816406 117.28125 550.199219 97.160156 551.867188 81.992188 C 553.535156 66.820312 562.835938 55.398438 578.007812 57.066406 C 593.175781 58.734375 604.121094 72.382812 602.453125 87.554688 Z M 602.453125 87.554688 " fill-opacity="1" fill-rule="nonzero"/><path fill="#e4bea0" d="M 600.851562 91.332031 C 600.851562 91.332031 602.132812 98.726562 605.351562 102.011719 C 605.351562 102.011719 598.320312 105.714844 598.320312 105.714844 C 598.320312 105.714844 600.851562 91.332031 600.851562 91.332031 Z M 600.851562 91.332031 " fill-opacity="1" fill-rule="nonzero"/><path fill="#8b371a" d="M 607.398438 91.351562 C 607.398438 91.351562 618.675781 63.472656 587.398438 55.207031 C 560.578125 48.121094 552.867188 72.941406 552.867188 72.941406 C 552.867188 72.941406 607.398438 91.351562 607.398438 91.351562 Z M 607.398438 91.351562 " fill-opacity="1" fill-rule="nonzero"/><path fill="#8b371a" d="M 579.589844 94 C 579.589844 94 573.972656 111.898438 579.328125 126.925781 C 579.328125 126.925781 549.289062 117.023438 539.683594 103.015625 C 535.789062 97.335938 536.292969 89.8125 540.757812 82.304688 C 552.519531 62.539062 556.484375 49.980469 584.515625 54.964844 C 584.515625 54.964844 601.910156 77.441406 601.910156 77.441406 C 601.910156 77.441406 579.589844 94 579.589844 94 Z M 579.589844 94 " fill-opacity="1" fill-rule="nonzero"/><path fill="#e4bea0" d="M 575.679688 84.238281 C 575.679688 84.238281 567.648438 76.320312 564.628906 86.796875 C 561.605469 97.273438 569.304688 98.175781 569.304688 98.175781 C 569.304688 98.175781 575.679688 84.238281 575.679688 84.238281 Z M 575.679688 84.238281 " fill-opacity="1" fill-rule="nonzero"/><path fill="#ec5e5c" d="M 573.289062 96.855469 C 573.289062 98.773438 571.734375 100.328125 569.8125 100.328125 C 567.894531 100.328125 566.335938 98.773438 566.335938 96.855469 C 566.335938 94.933594 567.894531 93.378906 569.8125 93.378906 C 571.734375 93.378906 573.289062 94.933594 573.289062 96.855469 Z M 573.289062 96.855469 " fill-opacity="1" fill-rule="nonzero"/></svg>